<svg width="164" height="30" viewBox="0 0 164 30" fill="none" xmlns="http://www.w3.org/2000/svg">
<path d="M0.222995 27.9838L1.0713 27.7638C1.51778 27.6465 1.86008 27.5438 2.0982 27.4558C2.36609 27.3385 2.55956 27.1918 2.67862 27.0158C2.79768 26.8398 2.87209 26.6051 2.90186 26.3118C2.93162 26.0185 2.94651 25.6225 2.94651 25.1238V12.0116C2.94651 11.5422 2.93162 11.1609 2.90186 10.8676C2.87209 10.5742 2.79768 10.3249 2.67862 10.1196C2.58932 9.91421 2.4405 9.72354 2.23214 9.54754C2.02379 9.37154 1.7559 9.15154 1.42848 8.88753L-0.000244141 7.83152V6.8195L10.7599 5.71948L11.3403 6.11549L11.251 9.06353H11.4742C12.6946 8.15419 13.9745 7.37684 15.3139 6.7315C16.6534 6.05682 18.1714 5.71948 19.868 5.71948C22.4873 5.71948 24.2435 6.83417 25.1364 9.06353H25.3597C26.58 8.15419 27.8748 7.37684 29.244 6.7315C30.6132 6.05682 32.1461 5.71948 33.8427 5.71948C35.5096 5.71948 36.8639 6.21816 37.9057 7.21551C38.9772 8.18352 39.513 9.65021 39.513 11.6156V25.1238C39.513 25.6518 39.5279 26.0625 39.5576 26.3558C39.5874 26.6491 39.6618 26.8838 39.7809 27.0598C39.9297 27.2358 40.1232 27.3678 40.3613 27.4558C40.5994 27.5438 40.9417 27.6465 41.3882 27.7638L42.2365 27.9838V29.3918H28.7975V27.9838L29.4226 27.8078C29.7798 27.7198 30.0477 27.6318 30.2263 27.5438C30.4346 27.4558 30.5835 27.3238 30.6727 27.1478C30.762 26.9718 30.8216 26.7371 30.8513 26.4438C30.8811 26.1211 30.896 25.6811 30.896 25.1238V13.7716C30.896 12.5396 30.7025 11.7036 30.3156 11.2636C29.9584 10.7942 29.3482 10.5596 28.485 10.5596C27.8897 10.5596 27.3391 10.5889 26.833 10.6476C26.327 10.7062 25.8657 10.7649 25.449 10.8236C25.4787 10.9702 25.4936 11.1609 25.4936 11.3956C25.5234 11.6302 25.5383 11.8649 25.5383 12.0996V25.1238C25.5383 25.6811 25.5531 26.1211 25.5829 26.4438C25.6127 26.7371 25.6722 26.9718 25.7615 27.1478C25.8508 27.3238 25.9847 27.4558 26.1633 27.5438C26.3717 27.6318 26.6545 27.7198 27.0116 27.8078L27.6367 27.9838V29.3918H14.8228V27.9838L15.4479 27.8078C15.8051 27.7198 16.0729 27.6318 16.2515 27.5438C16.4599 27.4558 16.6087 27.3238 16.698 27.1478C16.7873 26.9718 16.8468 26.7371 16.8766 26.4438C16.9064 26.1211 16.9212 25.6811 16.9212 25.1238V13.7716C16.9212 12.5396 16.7278 11.7036 16.3408 11.2636C15.9836 10.7942 15.3735 10.5596 14.5103 10.5596C13.915 10.5596 13.3792 10.5889 12.903 10.6476C12.4267 10.7062 11.9802 10.7649 11.5635 10.8236V25.1238C11.5635 25.6811 11.5784 26.1211 11.6082 26.4438C11.6379 26.7371 11.6975 26.9718 11.7868 27.1478C11.8761 27.3238 12.01 27.4558 12.1886 27.5438C12.3969 27.6318 12.6797 27.7198 13.0369 27.8078L13.662 27.9838V29.3918H0.222995V27.9838Z" fill="black"/>
<path fill-rule="evenodd" clip-rule="evenodd" d="M50.7388 29.1809C52.2569 29.6503 53.8493 29.8849 55.5161 29.8849C57.1235 29.8849 58.6861 29.6649 60.2042 29.2249C61.7222 28.7849 63.0616 28.0809 64.2225 27.1129C65.4131 26.1449 66.3655 24.8835 67.0799 23.3288C67.824 21.7741 68.1961 19.8968 68.1961 17.6968C68.1961 15.6434 67.8389 13.8687 67.1246 12.3727C66.44 10.8766 65.5024 9.62996 64.3118 8.63262C63.1509 7.63527 61.7966 6.90192 60.2488 6.43258C58.7308 5.93391 57.1532 5.68457 55.5161 5.68457C53.9386 5.68457 52.3908 5.90457 50.8728 6.34458C49.3845 6.78459 48.0302 7.4886 46.8098 8.45661C45.6192 9.42463 44.6519 10.686 43.9077 12.2407C43.1934 13.7954 42.8362 15.6727 42.8362 17.8728C42.8362 19.9261 43.1785 21.7155 43.8631 23.2408C44.5774 24.7369 45.515 25.9835 46.6759 26.9809C47.8665 27.9489 49.2208 28.6823 50.7388 29.1809ZM49.4856 25.8433C49.0647 25.6358 48.6753 25.3558 48.3175 25.0032C47.8334 24.5261 47.4967 24.0491 47.3073 23.572C47.1389 23.0742 47.202 22.4519 47.4967 21.7052C47.8334 20.9585 48.4649 20.0251 49.3909 18.905C50.317 17.7849 51.643 16.3745 53.3688 14.6736C54.779 13.2839 55.9787 12.2053 56.9679 11.4379C57.9782 10.6911 58.8306 10.183 59.5251 9.91332C60.2407 9.66441 60.8406 9.61255 61.3247 9.75775C61.8298 9.8822 62.2823 10.1415 62.6822 10.5356C63.1032 10.9504 63.4083 11.3964 63.5978 11.8734C63.8082 12.3298 63.7767 12.9209 63.503 13.6469C63.2505 14.3936 62.6927 15.3166 61.8298 16.416C60.9669 17.5153 59.683 18.905 57.9782 20.5851C56.3365 22.203 54.9684 23.4061 53.874 24.1943C52.8006 25.0032 51.9061 25.5321 51.1905 25.781C50.4959 26.0092 49.9276 26.0299 49.4856 25.8433Z" fill="#FF5C00"/>
<path d="M68.7892 27.9835L69.6375 27.7635C70.0839 27.6462 70.4262 27.5435 70.6644 27.4555C70.9322 27.3382 71.1257 27.1915 71.2448 27.0155C71.3638 26.8395 71.4383 26.6048 71.468 26.3115C71.4978 26.0182 71.5127 25.6222 71.5127 25.1235V12.0113C71.5127 11.5419 71.4978 11.1606 71.468 10.8673C71.4383 10.5739 71.3638 10.3246 71.2448 10.1193C71.1555 9.91392 71.0067 9.72325 70.7983 9.54725C70.5899 9.37124 70.3221 9.15124 69.9946 8.88724L68.5659 7.83122V6.81921L79.326 5.71919L79.9064 6.11519L79.8171 9.06324H80.0404C81.2608 8.15389 82.5704 7.37655 83.9694 6.7312C85.3981 6.05653 86.9906 5.71919 88.7467 5.71919C90.5028 5.71919 91.9018 6.21786 92.9436 7.21521C94.0151 8.18323 94.5509 9.64992 94.5509 11.6153V25.1235C94.5509 25.6515 94.5658 26.0622 94.5956 26.3555C94.6253 26.6488 94.6997 26.8835 94.8188 27.0595C94.9676 27.2355 95.1611 27.3675 95.3992 27.4555C95.6373 27.5435 95.9796 27.6462 96.4261 27.7635L97.2744 27.9835V29.3916H83.6122V27.9835L84.3266 27.8075C84.7135 27.7195 85.0112 27.6315 85.2195 27.5435C85.4576 27.4555 85.6214 27.3235 85.7107 27.1475C85.8297 26.9715 85.8892 26.7368 85.8892 26.4435C85.919 26.1208 85.9339 25.6808 85.9339 25.1235V13.7713C85.9339 12.5393 85.6958 11.7033 85.2195 11.2633C84.773 10.7939 84.1182 10.5593 83.255 10.5593C82.6002 10.5593 82.0198 10.5886 81.5138 10.6473C81.0078 10.7059 80.5464 10.7646 80.1297 10.8233V25.1235C80.1297 25.6808 80.1297 26.1208 80.1297 26.4435C80.1594 26.7368 80.219 26.9715 80.3083 27.1475C80.4273 27.3235 80.591 27.4555 80.7994 27.5435C81.0375 27.6315 81.3501 27.7195 81.737 27.8075L82.4514 27.9835V29.3916H68.7892V27.9835Z" fill="black"/>
<path d="M110.284 29.9196C106.236 29.9196 103.2 28.8782 101.176 26.7955C99.1819 24.6835 98.1848 21.6914 98.1848 17.8194C98.1848 15.8247 98.5271 14.0793 99.2117 12.5833C99.9261 11.0579 100.849 9.79658 101.98 8.79923C103.141 7.77255 104.435 7.00987 105.864 6.5112C107.323 5.98319 108.796 5.71919 110.284 5.71919C111.921 5.71919 113.395 5.92452 114.704 6.3352C116.014 6.74587 117.13 7.39121 118.053 8.27123C118.976 9.15124 119.69 10.2953 120.196 11.7033C120.732 13.082 121.03 14.7687 121.089 16.7634H106.534C106.593 18.5527 106.787 20.0194 107.114 21.1634C107.472 22.2781 107.963 23.1581 108.588 23.8035C109.213 24.4488 109.972 24.9035 110.865 25.1675C111.758 25.4022 112.785 25.5195 113.945 25.5195C115.196 25.5195 116.342 25.3728 117.383 25.0795C118.455 24.7568 119.422 24.3755 120.285 23.9355V25.4755C119.839 26.0035 119.288 26.5315 118.633 27.0595C117.979 27.5875 117.22 28.0715 116.356 28.5115C115.523 28.9222 114.585 29.2595 113.544 29.5236C112.532 29.7876 111.445 29.9196 110.284 29.9196ZM109.838 7.61122C109.391 7.61122 108.975 7.74322 108.588 8.00722C108.201 8.24189 107.858 8.65257 107.561 9.23924C107.263 9.79658 107.025 10.5446 106.846 11.4833C106.668 12.422 106.564 13.5806 106.534 14.9593L112.785 14.5633C112.785 13.2433 112.74 12.1433 112.651 11.2633C112.561 10.3539 112.398 9.63525 112.16 9.10724C111.951 8.5499 111.654 8.16856 111.267 7.96322C110.88 7.72855 110.403 7.61122 109.838 7.61122Z" fill="black"/>
<path d="M131.047 29.9196C128.696 29.9196 126.969 29.3916 125.868 28.3355C124.767 27.2502 124.216 25.4902 124.216 23.0555V9.32724H121.537V8.09522C123.413 7.33254 125.05 6.27653 126.449 4.92718C127.848 3.57782 128.874 1.97913 129.529 0.131104H132.833V6.2912H138.637L137.968 9.32724H132.833V22.6594C132.833 23.8328 133.012 24.6688 133.369 25.1675C133.756 25.6368 134.545 25.8715 135.735 25.8715C136.212 25.8715 136.747 25.8422 137.343 25.7835C137.938 25.6955 138.429 25.6222 138.816 25.5635V27.0155C138.518 27.3088 138.131 27.6315 137.655 27.9835C137.209 28.3062 136.658 28.6142 136.003 28.9075C135.378 29.2009 134.649 29.4355 133.815 29.6116C133.012 29.8169 132.089 29.9196 131.047 29.9196Z" fill="black"/>
<path d="M146.348 29.9196C144.205 29.9196 142.538 29.4209 141.347 28.4235C140.186 27.3969 139.606 25.9595 139.606 24.1115C139.606 23.1141 139.785 22.2488 140.142 21.5154C140.499 20.7528 141.035 20.0927 141.749 19.5354C142.493 18.9487 143.416 18.45 144.517 18.0394C145.648 17.5994 146.988 17.1887 148.536 16.8074L152.063 15.9273V12.4513C152.063 11.4539 152.003 10.6473 151.884 10.0313C151.795 9.41524 151.631 8.93124 151.393 8.57923C151.185 8.22723 150.902 7.99256 150.545 7.87522C150.217 7.75788 149.83 7.69922 149.384 7.69922C148.878 7.69922 148.521 7.80189 148.312 8.00722C148.104 8.18323 147.97 8.57923 147.911 9.19524C147.791 10.8966 147.405 12.0553 146.75 12.6713C146.095 13.2873 145.127 13.5953 143.848 13.5953C142.806 13.5953 141.972 13.346 141.347 12.8473C140.752 12.3486 140.454 11.5859 140.454 10.5593C140.454 9.85525 140.648 9.20991 141.035 8.62323C141.451 8.00722 142.091 7.49388 142.955 7.08321C143.848 6.6432 144.964 6.30586 146.303 6.07119C147.672 5.83652 149.309 5.71919 151.214 5.71919C152.643 5.71919 153.938 5.83652 155.099 6.07119C156.26 6.27653 157.257 6.62854 158.09 7.12721C158.924 7.59655 159.564 8.24189 160.01 9.06324C160.457 9.85525 160.68 10.8233 160.68 11.9673V23.4075C160.68 24.3461 160.739 25.0208 160.858 25.4315C160.977 25.8128 161.245 26.1208 161.662 26.3555C161.96 26.5022 162.317 26.6195 162.734 26.7075C163.15 26.7662 163.478 26.7955 163.716 26.7955V28.1155C163.24 28.4675 162.525 28.8635 161.573 29.3035C160.62 29.7142 159.34 29.9196 157.733 29.9196C154.905 29.9196 153.179 28.9955 152.554 27.1475H152.375C151.78 27.8515 151.006 28.4969 150.054 29.0835C149.131 29.6409 147.896 29.9196 146.348 29.9196ZM150.455 26.2675C151.2 26.2675 151.735 25.9742 152.063 25.3875V18.3914L150.723 18.4794C149.741 18.538 149.042 18.8607 148.625 19.4474C148.208 20.0341 148 21.0901 148 22.6154C148 23.3781 148.059 23.9941 148.178 24.4635C148.327 24.9328 148.506 25.2995 148.714 25.5635C148.952 25.8275 149.22 26.0182 149.518 26.1355C149.815 26.2235 150.128 26.2675 150.455 26.2675Z" fill="black"/>
</svg>
